<svg xmlns="http://www.w3.org/2000/svg" width="24" height="24" viewBox="0 -960 960 960">
    <path
            d="M360-320q33 0 56.5-23.5T440-400t-23.5-56.5T360-480t-56.5 23.5T280-400t23.5 56.5T360-320m240 0q33 0 56.5-23.5T680-400t-23.5-56.5T600-480t-56.5 23.5T520-400t23.5 56.5T600-320M480-520q33 0 56.5-23.5T560-600t-23.5-56.5T480-680t-56.5 23.5T400-600t23.5 56.5T480-520m0 440q-83 0-156-31.5T197-197t-85.5-127T80-480t31.5-156T197-763t127-85.5T480-880t156 31.5T763-763t85.5 127T880-480t-31.5 156T763-197t-127 85.5T480-80m0-80q134 0 227-93t93-227-93-227-227-93-227 93-93 227 93 227 227 93m0-320"
            fill="#ffffff"
    />
</svg>