<?xml version="1.0" standalone="no"?>
<!DOCTYPE svg PUBLIC "-//W3C//DTD SVG 20010904//EN"
 "http://www.w3.org/TR/2001/REC-SVG-20010904/DTD/svg10.dtd">
<svg version="1.0" xmlns="http://www.w3.org/2000/svg"
 width="1034.000000pt" height="1034.000000pt" viewBox="0 0 1034.000000 1034.000000"
 preserveAspectRatio="xMidYMid meet">

<g transform="translate(0.000000,1034.000000) scale(0.100000,-0.100000)"
fill="#000000" stroke="none">
<path d="M4726 10329 c-685 -39 -1315 -205 -1931 -509 -316 -156 -531 -287
-802 -492 -210 -158 -306 -240 -492 -423 -410 -403 -722 -835 -981 -1360 -367
-744 -520 -1442 -520 -2375 0 -933 153 -1632 520 -2375 258 -522 571 -958 977
-1355 653 -642 1428 -1075 2313 -1293 428 -106 807 -147 1360 -147 331 0 499
8 740 36 707 81 1385 310 1990 672 1149 688 1974 1807 2294 3112 101 412 146
827 146 1350 0 660 -75 1180 -247 1705 -79 243 -151 422 -257 640 -258 531
-584 986 -997 1391 -391 382 -795 668 -1294 914 -626 309 -1238 469 -1955 510
-200 11 -659 11 -864 -1z m3264 -3749 l0 -470 -1175 0 -1175 0 0 -235 0 -235
235 0 235 0 0 -235 0 -235 470 0 470 0 0 235 0 235 470 0 470 0 0 -235 0 -235
235 0 235 0 0 470 0 470 235 0 235 0 0 -705 0 -705 -235 0 -235 0 0 -705 0
-705 -235 0 -235 0 0 -235 0 -235 -940 0 -940 0 0 -470 0 -470 235 0 235 0 0
-235 0 -235 -235 0 -235 0 0 -235 0 -235 -940 0 -940 0 0 235 0 235 -235 0
-235 0 0 235 0 235 235 0 235 0 0 470 0 470 -940 0 -940 0 0 235 0 235 -235 0
-235 0 0 705 0 705 -235 0 -235 0 0 705 0 705 235 0 235 0 0 -470 0 -470 705
0 705 0 0 235 0 235 705 0 705 0 0 235 0 235 -1175 0 -1175 0 0 470 0 470
2820 0 2820 0 0 -470z"/>
<path d="M4700 3995 l0 -235 470 0 470 0 0 235 0 235 -470 0 -470 0 0 -235z"/>
</g>
</svg>
